<svg width="1200" height="630" viewBox="0 0 1200 630" fill="none" xmlns="http://www.w3.org/2000/svg">
<rect width="1200" height="630" fill="#EA944C"/>
<path d="M1117.5 526.5V528C1117.5 530.538 1116.58 532.989 1114.91 534.901C1113.24 536.813 1110.93 538.056 1108.42 538.401C1109.44 539.714 1110 541.333 1110 543V550.5C1110 550.898 1109.84 551.279 1109.56 551.561C1109.28 551.842 1108.9 552 1108.5 552H1096.5C1096.1 552 1095.72 551.842 1095.44 551.561C1095.16 551.279 1095 550.898 1095 550.5V547.5H1090.5C1088.51 547.5 1086.6 546.71 1085.2 545.303C1083.79 543.897 1083 541.989 1083 540C1083 538.807 1082.53 537.662 1081.68 536.818C1080.84 535.974 1079.69 535.5 1078.5 535.5C1078.1 535.5 1077.72 535.342 1077.44 535.061C1077.16 534.779 1077 534.398 1077 534C1077 533.602 1077.16 533.221 1077.44 532.939C1077.72 532.658 1078.1 532.5 1078.5 532.5C1079.48 532.5 1080.46 532.694 1081.37 533.071C1082.28 533.448 1083.11 534 1083.8 534.697C1084.5 535.393 1085.05 536.22 1085.43 537.13C1085.81 538.04 1086 539.015 1086 540C1086 541.193 1086.47 542.338 1087.32 543.182C1088.16 544.026 1089.31 544.5 1090.5 544.5H1095V543C1095 541.333 1095.56 539.714 1096.58 538.401C1094.07 538.056 1091.76 536.813 1090.09 534.901C1088.42 532.989 1087.5 530.538 1087.5 528V526.5C1087.52 524.636 1088.02 522.808 1088.94 521.19C1088.48 519.711 1088.34 518.153 1088.51 516.614C1088.68 515.076 1089.17 513.59 1089.95 512.25C1090.08 512.022 1090.27 511.833 1090.5 511.701C1090.73 511.569 1090.99 511.5 1091.25 511.5C1093 511.496 1094.72 511.901 1096.28 512.683C1097.85 513.464 1099.2 514.6 1100.25 516H1104.75C1105.8 514.6 1107.15 513.464 1108.72 512.683C1110.28 511.901 1112 511.496 1113.75 511.5C1114.01 511.5 1114.27 511.569 1114.5 511.701C1114.73 511.833 1114.92 512.022 1115.05 512.25C1115.83 513.59 1116.32 515.076 1116.49 516.614C1116.66 518.153 1116.52 519.711 1116.06 521.19C1116.98 522.807 1117.48 524.636 1117.5 526.5Z" fill="#FDF1E8"/>
<path d="M114 513H84C83.2044 513 82.4413 513.316 81.8787 513.879C81.3161 514.441 81 515.204 81 516V546C81 546.796 81.3161 547.559 81.8787 548.121C82.4413 548.684 83.2044 549 84 549H114C114.796 549 115.559 548.684 116.121 548.121C116.684 547.559 117 546.796 117 546V516C117 515.204 116.684 514.441 116.121 513.879C115.559 513.316 114.796 513 114 513ZM102.105 539.561L98.0831 543.583C96.5292 545.097 94.4417 545.937 92.2725 545.923C90.1033 545.909 88.0271 545.041 86.4932 543.507C84.9593 541.973 84.0913 539.897 84.077 537.727C84.0627 535.558 84.9033 533.471 86.4169 531.917L90.4387 527.893C90.578 527.754 90.7433 527.643 90.9253 527.568C91.1073 527.492 91.3023 527.453 91.4993 527.453C91.6963 527.453 91.8914 527.492 92.0735 527.567C92.2555 527.643 92.4209 527.753 92.5603 527.892C92.6997 528.031 92.8103 528.197 92.8857 528.379C92.9612 528.561 93.0001 528.756 93.0002 528.953C93.0003 529.15 92.9615 529.345 92.8862 529.527C92.8109 529.709 92.7005 529.874 92.5613 530.014L88.5375 534.037C87.5529 535.022 86.9997 536.358 86.9997 537.75C86.9997 539.142 87.5529 540.478 88.5375 541.463C89.5221 542.447 90.8575 543 92.25 543C93.6425 543 94.9779 542.447 95.9625 541.463L99.9844 537.439C100.266 537.158 100.647 537 101.045 537C101.443 537 101.825 537.158 102.106 537.44C102.387 537.721 102.545 538.103 102.545 538.501C102.545 538.899 102.386 539.28 102.105 539.561ZM95.5613 536.561C95.4219 536.701 95.2564 536.811 95.0743 536.887C94.8923 536.962 94.6971 537.001 94.5 537.001C94.3029 537.001 94.1077 536.962 93.9257 536.887C93.7436 536.811 93.5781 536.701 93.4387 536.561C93.2994 536.422 93.1888 536.256 93.1134 536.074C93.038 535.892 92.9992 535.697 92.9992 535.5C92.9992 535.303 93.038 535.108 93.1134 534.926C93.1888 534.744 93.2994 534.578 93.4387 534.439L102.439 525.439C102.578 525.299 102.744 525.189 102.926 525.113C103.108 525.038 103.303 524.999 103.5 524.999C103.697 524.999 103.892 525.038 104.074 525.113C104.256 525.189 104.422 525.299 104.561 525.439C104.701 525.578 104.811 525.744 104.887 525.926C104.962 526.108 105.001 526.303 105.001 526.5C105.001 526.697 104.962 526.892 104.887 527.074C104.811 527.256 104.701 527.422 104.561 527.561L95.5613 536.561ZM111.583 530.083L107.561 534.105C107.28 534.386 106.899 534.545 106.501 534.545C106.103 534.545 105.721 534.387 105.44 534.106C105.158 533.825 105 533.443 105 533.045C105 532.647 105.158 532.266 105.439 531.984L109.463 527.963C110.447 526.978 111 525.642 111 524.25C111 522.858 110.447 521.522 109.463 520.537C108.478 519.553 107.142 519 105.75 519C104.358 519 103.022 519.553 102.037 520.537L98.0137 524.561C97.7323 524.842 97.3506 525 96.9528 525C96.5549 525 96.1734 524.842 95.8922 524.56C95.611 524.279 95.4531 523.897 95.4533 523.499C95.4534 523.101 95.6117 522.72 95.8931 522.439L99.9169 518.417C101.471 516.903 103.558 516.063 105.727 516.077C107.897 516.091 109.973 516.959 111.507 518.493C113.041 520.027 113.909 522.103 113.923 524.273C113.937 526.442 113.097 528.529 111.583 530.083Z" fill="#FDF1E8"/>
<g clip-path="url(#clip0_75_63)">
<path d="M140.102 141.674C135.82 141.674 132.229 141.049 129.33 139.801C126.475 138.552 124.311 136.923 122.839 134.916C121.367 132.909 120.587 130.768 120.498 128.493C120.498 128.136 120.631 127.824 120.899 127.556C121.167 127.244 121.501 127.088 121.903 127.088H129.062C129.642 127.088 130.088 127.222 130.4 127.489C130.712 127.712 131.002 128.002 131.27 128.359C131.582 129.118 132.073 129.853 132.742 130.567C133.456 131.281 134.415 131.883 135.619 132.374C136.823 132.82 138.318 133.043 140.102 133.043C143.001 133.043 145.165 132.574 146.592 131.638C148.064 130.701 148.8 129.43 148.8 127.824C148.8 126.664 148.398 125.727 147.596 125.014C146.837 124.3 145.611 123.653 143.916 123.073C142.265 122.494 140.057 121.869 137.292 121.2C133.946 120.486 131.091 119.572 128.727 118.457C126.408 117.297 124.646 115.825 123.442 114.041C122.282 112.212 121.702 109.959 121.702 107.283C121.702 104.607 122.438 102.243 123.91 100.191C125.382 98.0944 127.456 96.4663 130.132 95.3065C132.809 94.1022 135.998 93.5 139.7 93.5C142.689 93.5 145.321 93.9014 147.596 94.7043C149.915 95.5072 151.833 96.5555 153.35 97.849C154.911 99.1426 156.093 100.525 156.896 101.997C157.699 103.469 158.122 104.897 158.167 106.279C158.167 106.636 158.033 106.971 157.766 107.283C157.498 107.551 157.163 107.685 156.762 107.685H149.268C148.822 107.685 148.421 107.595 148.064 107.417C147.707 107.238 147.417 106.926 147.194 106.48C146.926 105.32 146.124 104.317 144.785 103.469C143.492 102.577 141.797 102.131 139.7 102.131C137.515 102.131 135.775 102.533 134.482 103.336C133.233 104.138 132.608 105.365 132.608 107.015C132.608 108.086 132.92 109 133.545 109.759C134.214 110.472 135.307 111.119 136.823 111.699C138.384 112.234 140.436 112.836 142.979 113.506C146.904 114.308 150.093 115.267 152.547 116.383C155 117.498 156.807 118.947 157.966 120.732C159.126 122.471 159.706 124.679 159.706 127.356C159.706 130.344 158.858 132.909 157.163 135.05C155.513 137.191 153.216 138.842 150.272 140.001C147.373 141.116 143.982 141.674 140.102 141.674Z" fill="#FDF1E8"/>
<path d="M76.4051 141.033C76.0036 141.033 75.6691 140.9 75.4014 140.632C75.1338 140.32 75 139.985 75 139.628C75 139.405 75.0223 139.205 75.0669 139.026L90.9911 96.0042C91.1249 95.5135 91.3925 95.0897 91.794 94.7329C92.1954 94.3761 92.753 94.1976 93.4667 94.1976H102.031C102.745 94.1976 103.302 94.3761 103.704 94.7329C104.105 95.0897 104.373 95.5135 104.507 96.0042L120.431 139.026C120.475 139.205 120.498 139.405 120.498 139.628C120.498 139.985 120.364 140.32 120.096 140.632C119.829 140.9 119.494 141.033 119.093 141.033H112.134C111.465 141.033 110.974 140.877 110.662 140.565C110.35 140.253 110.149 139.963 110.06 139.695L107.183 132.202H88.3147L85.4377 139.695C85.3485 139.963 85.1478 140.253 84.8355 140.565C84.5233 140.877 84.0326 141.033 83.3635 141.033H76.4051ZM90.7904 123.57H104.64L97.7488 104.301L90.7904 123.57Z" fill="#FDF1E8"/>
</g>
<defs>
<clipPath id="clip0_75_63">
<rect width="84.7059" height="48" fill="white" transform="translate(75 93.5)"/>
</clipPath>
</defs>
</svg>
