<svg width="500" height="500" viewBox="0 0 500 500" fill="none" xmlns="http://www.w3.org/2000/svg"><rect width="500" height="500" rx="250" fill="#3087CF"/><path d="M354.167 125H145.833C140.308 125 135.009 127.195 131.102 131.102C127.195 135.009 125 140.308 125 145.833V354.167C125 359.692 127.195 364.991 131.102 368.898C135.009 372.805 140.308 375 145.833 375H354.167C359.692 375 364.991 372.805 368.898 368.898C372.805 364.991 375 359.692 375 354.167V145.833C375 140.308 372.805 135.009 368.898 131.102C364.991 127.195 359.692 125 354.167 125ZM145.833 150.833C145.833 148.072 148.072 145.833 150.833 145.833H349.167C351.928 145.833 354.167 148.072 354.167 150.833V234.514C354.167 238.969 348.78 241.2 345.63 238.049L322.018 214.427C318.112 210.523 312.815 208.33 307.292 208.33C301.769 208.33 296.472 210.523 292.565 214.427L154.274 352.719C153.346 353.646 152.089 354.167 150.778 354.167C148.047 354.167 145.833 351.953 145.833 349.222V150.833ZM187.5 208.333C187.5 204.213 188.722 200.185 191.011 196.759C193.3 193.333 196.554 190.663 200.361 189.086C204.168 187.509 208.356 187.096 212.398 187.9C216.439 188.704 220.151 190.688 223.065 193.602C225.978 196.516 227.963 200.228 228.766 204.269C229.57 208.31 229.158 212.499 227.581 216.306C226.004 220.113 223.334 223.366 219.908 225.656C216.482 227.945 212.454 229.167 208.333 229.167C202.808 229.167 197.509 226.972 193.602 223.065C189.695 219.158 187.5 213.859 187.5 208.333Z" fill="#F2F2F2"/></svg>
