<svg width="1200" height="630" viewBox="0 0 1200 630" fill="none" xmlns="http://www.w3.org/2000/svg">
<rect width="1200" height="630" fill="#E67519"/>
<path d="M1120.5 529.5V531C1120.5 533.538 1119.58 535.989 1117.91 537.901C1116.24 539.813 1113.93 541.056 1111.42 541.401C1112.44 542.714 1113 544.333 1113 546V553.5C1113 553.898 1112.84 554.279 1112.56 554.561C1112.28 554.842 1111.9 555 1111.5 555H1099.5C1099.1 555 1098.72 554.842 1098.44 554.561C1098.16 554.279 1098 553.898 1098 553.5V550.5H1093.5C1091.51 550.5 1089.6 549.71 1088.2 548.303C1086.79 546.897 1086 544.989 1086 543C1086 541.807 1085.53 540.662 1084.68 539.818C1083.84 538.974 1082.69 538.5 1081.5 538.5C1081.1 538.5 1080.72 538.342 1080.44 538.061C1080.16 537.779 1080 537.398 1080 537C1080 536.602 1080.16 536.221 1080.44 535.939C1080.72 535.658 1081.1 535.5 1081.5 535.5C1082.48 535.5 1083.46 535.694 1084.37 536.071C1085.28 536.448 1086.11 537 1086.8 537.697C1087.5 538.393 1088.05 539.22 1088.43 540.13C1088.81 541.04 1089 542.015 1089 543C1089 544.193 1089.47 545.338 1090.32 546.182C1091.16 547.026 1092.31 547.5 1093.5 547.5H1098V546C1098 544.333 1098.56 542.714 1099.58 541.401C1097.07 541.056 1094.76 539.813 1093.09 537.901C1091.42 535.989 1090.5 533.538 1090.5 531V529.5C1090.52 527.636 1091.02 525.808 1091.94 524.19C1091.48 522.711 1091.34 521.153 1091.51 519.614C1091.68 518.076 1092.17 516.59 1092.95 515.25C1093.08 515.022 1093.27 514.833 1093.5 514.701C1093.73 514.569 1093.99 514.5 1094.25 514.5C1096 514.496 1097.72 514.901 1099.28 515.683C1100.85 516.464 1102.2 517.6 1103.25 519H1107.75C1108.8 517.6 1110.15 516.464 1111.72 515.683C1113.28 514.901 1115 514.496 1116.75 514.5C1117.01 514.5 1117.27 514.569 1117.5 514.701C1117.73 514.833 1117.92 515.022 1118.05 515.25C1118.83 516.59 1119.32 518.076 1119.49 519.614C1119.66 521.153 1119.52 522.711 1119.06 524.19C1119.98 525.807 1120.48 527.636 1120.5 529.5Z" fill="#F2F2F2"/>
<g clip-path="url(#clip0_118_78)">
<path d="M111.34 147.281C110.69 147.281 110.118 146.857 109.928 146.236L106.753 135.823C106.563 135.203 105.991 134.778 105.342 134.778H88.3541C87.705 134.778 87.1322 135.203 86.9429 135.823L83.7673 146.236C83.578 146.857 83.0052 147.281 82.3561 147.281H73.5176C72.5002 147.281 71.7882 146.276 72.1259 145.316L89.6485 95.5246C89.8563 94.934 90.4142 94.5389 91.0402 94.5389H102.585C103.21 94.5389 103.768 94.9332 103.976 95.5229L121.566 145.315C121.906 146.275 121.193 147.281 120.175 147.281H111.34ZM101.766 125.437C102.761 125.437 103.471 124.472 103.174 123.522L99.9593 113.222C99.7195 112.407 99.3958 111.365 98.9881 110.096C98.6044 108.802 98.2087 107.497 97.801 106.18C97.5473 105.293 96.1732 105.29 95.913 106.175C95.8951 106.236 95.8769 106.297 95.8586 106.359C95.4509 107.796 95.0553 109.162 94.6716 110.455C94.2879 111.749 94.0121 112.671 93.8442 113.222L90.6582 123.526C90.3648 124.475 91.0743 125.437 92.0678 125.437H101.766Z" fill="#F2F2F2"/>
<path d="M159.959 132.695C159.959 135.808 159.204 138.515 157.693 140.814C156.182 143.114 153.976 144.886 151.074 146.132C148.196 147.377 144.695 148 140.571 148C138.748 148 136.961 147.88 135.211 147.641C133.484 147.401 131.818 147.054 130.211 146.599C128.933 146.212 127.703 145.755 126.519 145.228C126.001 144.998 125.679 144.478 125.679 143.912V136.756C125.679 135.69 126.776 134.974 127.763 135.377C129.607 136.133 131.503 136.831 133.448 137.473C136.134 138.359 138.796 138.802 141.434 138.802C143.256 138.802 144.719 138.563 145.822 138.084C146.949 137.605 147.765 136.946 148.268 136.108C148.772 135.269 149.024 134.311 149.024 133.234C149.024 131.916 148.58 130.79 147.693 129.856C146.806 128.922 145.583 128.048 144.024 127.234C142.489 126.419 140.75 125.545 138.808 124.611C137.585 124.036 136.254 123.341 134.815 122.527C133.376 121.689 132.009 120.671 130.714 119.473C129.42 118.275 128.352 116.826 127.513 115.126C126.698 113.401 126.29 111.341 126.29 108.946C126.29 105.808 127.009 103.126 128.448 100.898C129.887 98.6707 131.938 96.9701 134.599 95.7964C137.285 94.5988 140.451 94 144.096 94C146.83 94 149.431 94.3234 151.901 94.9701C153.986 95.4905 156.145 96.2117 158.38 97.1337C159.122 97.4395 159.461 98.2923 159.154 99.0329L156.671 105.008C156.361 105.756 155.505 106.112 154.75 105.821C152.868 105.097 151.151 104.522 149.599 104.096C147.681 103.545 145.726 103.269 143.736 103.269C142.345 103.269 141.158 103.497 140.175 103.952C139.192 104.383 138.448 105.006 137.945 105.82C137.441 106.611 137.189 107.533 137.189 108.587C137.189 109.832 137.549 110.886 138.268 111.749C139.012 112.587 140.115 113.401 141.578 114.192C143.065 114.982 144.911 115.904 147.117 116.958C149.803 118.228 152.093 119.557 153.988 120.946C155.906 122.311 157.381 123.928 158.412 125.796C159.443 127.641 159.959 129.94 159.959 132.695Z" fill="#F2F2F2"/>
</g>
<defs>
<clipPath id="clip0_118_78">
<rect width="88" height="54" fill="white" transform="translate(72 94)"/>
</clipPath>
</defs>
</svg>
