<svg width="1200" height="630" viewBox="0 0 1200 630" fill="none" xmlns="http://www.w3.org/2000/svg">
<rect width="1200" height="630" fill="#E67519"/>
<path d="M111 516H81C80.2044 516 79.4413 516.316 78.8787 516.879C78.3161 517.441 78 518.204 78 519V549C78 549.796 78.3161 550.559 78.8787 551.121C79.4413 551.684 80.2044 552 81 552H111C111.796 552 112.559 551.684 113.121 551.121C113.684 550.559 114 549.796 114 549V519C114 518.204 113.684 517.441 113.121 516.879C112.559 516.316 111.796 516 111 516ZM99.105 542.561L95.0831 546.583C93.5292 548.097 91.4417 548.937 89.2725 548.923C87.1033 548.909 85.0271 548.041 83.4932 546.507C81.9593 544.973 81.0913 542.897 81.077 540.727C81.0627 538.558 81.9033 536.471 83.4169 534.917L87.4387 530.893C87.578 530.754 87.7433 530.643 87.9253 530.568C88.1073 530.492 88.3023 530.453 88.4993 530.453C88.6963 530.453 88.8914 530.492 89.0735 530.567C89.2555 530.643 89.4209 530.753 89.5603 530.892C89.6997 531.031 89.8103 531.197 89.8857 531.379C89.9612 531.561 90.0001 531.756 90.0002 531.953C90.0003 532.15 89.9615 532.345 89.8862 532.527C89.8109 532.709 89.7005 532.874 89.5613 533.014L85.5375 537.037C84.5529 538.022 83.9997 539.358 83.9997 540.75C83.9997 542.142 84.5529 543.478 85.5375 544.463C86.5221 545.447 87.8575 546 89.25 546C90.6425 546 91.9779 545.447 92.9625 544.463L96.9844 540.439C97.2658 540.158 97.6475 540 98.0454 540C98.4432 540 98.8247 540.158 99.1059 540.44C99.3872 540.721 99.545 541.103 99.5449 541.501C99.5447 541.899 99.3865 542.28 99.105 542.561ZM92.5613 539.561C92.4219 539.701 92.2564 539.811 92.0743 539.887C91.8923 539.962 91.6971 540.001 91.5 540.001C91.3029 540.001 91.1077 539.962 90.9257 539.887C90.7436 539.811 90.5781 539.701 90.4387 539.561C90.2994 539.422 90.1888 539.256 90.1134 539.074C90.038 538.892 89.9992 538.697 89.9992 538.5C89.9992 538.303 90.038 538.108 90.1134 537.926C90.1888 537.744 90.2994 537.578 90.4387 537.439L99.4387 528.439C99.5781 528.299 99.7436 528.189 99.9257 528.113C100.108 528.038 100.303 527.999 100.5 527.999C100.697 527.999 100.892 528.038 101.074 528.113C101.256 528.189 101.422 528.299 101.561 528.439C101.701 528.578 101.811 528.744 101.887 528.926C101.962 529.108 102.001 529.303 102.001 529.5C102.001 529.697 101.962 529.892 101.887 530.074C101.811 530.256 101.701 530.422 101.561 530.561L92.5613 539.561ZM108.583 533.083L104.561 537.105C104.28 537.386 103.899 537.545 103.501 537.545C103.103 537.545 102.721 537.387 102.44 537.106C102.158 536.825 102 536.443 102 536.045C102 535.647 102.158 535.266 102.439 534.984L106.463 530.963C107.447 529.978 108 528.642 108 527.25C108 525.858 107.447 524.522 106.463 523.537C105.478 522.553 104.142 522 102.75 522C101.358 522 100.022 522.553 99.0375 523.537L95.0137 527.561C94.7323 527.842 94.3506 528 93.9528 528C93.5549 528 93.1734 527.842 92.8922 527.56C92.611 527.279 92.4531 526.897 92.4533 526.499C92.4534 526.101 92.6117 525.72 92.8931 525.439L96.9169 521.417C98.4708 519.903 100.558 519.063 102.727 519.077C104.897 519.091 106.973 519.959 108.507 521.493C110.041 523.027 110.909 525.103 110.923 527.273C110.937 529.442 110.097 531.529 108.583 533.083Z" fill="#F2F2F2"/>
<path d="M1120.5 529.5V531C1120.5 533.538 1119.58 535.989 1117.91 537.901C1116.24 539.813 1113.93 541.056 1111.42 541.401C1112.44 542.714 1113 544.333 1113 546V553.5C1113 553.898 1112.84 554.279 1112.56 554.561C1112.28 554.842 1111.9 555 1111.5 555H1099.5C1099.1 555 1098.72 554.842 1098.44 554.561C1098.16 554.279 1098 553.898 1098 553.5V550.5H1093.5C1091.51 550.5 1089.6 549.71 1088.2 548.303C1086.79 546.897 1086 544.989 1086 543C1086 541.807 1085.53 540.662 1084.68 539.818C1083.84 538.974 1082.69 538.5 1081.5 538.5C1081.1 538.5 1080.72 538.342 1080.44 538.061C1080.16 537.779 1080 537.398 1080 537C1080 536.602 1080.16 536.221 1080.44 535.939C1080.72 535.658 1081.1 535.5 1081.5 535.5C1082.48 535.5 1083.46 535.694 1084.37 536.071C1085.28 536.448 1086.11 537 1086.8 537.697C1087.5 538.393 1088.05 539.22 1088.43 540.13C1088.81 541.04 1089 542.015 1089 543C1089 544.193 1089.47 545.338 1090.32 546.182C1091.16 547.026 1092.31 547.5 1093.5 547.5H1098V546C1098 544.333 1098.56 542.714 1099.58 541.401C1097.07 541.056 1094.76 539.813 1093.09 537.901C1091.42 535.989 1090.5 533.538 1090.5 531V529.5C1090.52 527.636 1091.02 525.808 1091.94 524.19C1091.48 522.711 1091.34 521.153 1091.51 519.614C1091.68 518.076 1092.17 516.59 1092.95 515.25C1093.08 515.022 1093.27 514.833 1093.5 514.701C1093.73 514.569 1093.99 514.5 1094.25 514.5C1096 514.496 1097.72 514.901 1099.28 515.683C1100.85 516.464 1102.2 517.6 1103.25 519H1107.75C1108.8 517.6 1110.15 516.464 1111.72 515.683C1113.28 514.901 1115 514.496 1116.75 514.5C1117.01 514.5 1117.27 514.569 1117.5 514.701C1117.73 514.833 1117.92 515.022 1118.05 515.25C1118.83 516.59 1119.32 518.076 1119.49 519.614C1119.66 521.153 1119.52 522.711 1119.06 524.19C1119.98 525.807 1120.48 527.636 1120.5 529.5Z" fill="#F2F2F2"/>
<g clip-path="url(#clip0_118_121)">
<path d="M111.34 147.281C110.69 147.281 110.118 146.857 109.928 146.236L106.753 135.823C106.563 135.203 105.991 134.778 105.342 134.778H88.3541C87.705 134.778 87.1322 135.203 86.9429 135.823L83.7673 146.236C83.578 146.857 83.0052 147.281 82.3561 147.281H73.5176C72.5002 147.281 71.7882 146.276 72.1259 145.316L89.6485 95.5246C89.8563 94.934 90.4142 94.5389 91.0402 94.5389H102.585C103.21 94.5389 103.768 94.9332 103.976 95.5229L121.566 145.315C121.906 146.275 121.193 147.281 120.175 147.281H111.34ZM101.766 125.437C102.761 125.437 103.471 124.472 103.174 123.522L99.9593 113.222C99.7195 112.407 99.3958 111.365 98.9881 110.096C98.6044 108.802 98.2087 107.497 97.801 106.18C97.5473 105.293 96.1732 105.29 95.913 106.175C95.8951 106.236 95.8769 106.297 95.8586 106.359C95.4509 107.796 95.0553 109.162 94.6716 110.455C94.2879 111.749 94.0121 112.671 93.8442 113.222L90.6582 123.526C90.3648 124.475 91.0743 125.437 92.0678 125.437H101.766Z" fill="#F2F2F2"/>
<path d="M159.959 132.695C159.959 135.808 159.204 138.515 157.693 140.814C156.182 143.114 153.976 144.886 151.074 146.132C148.196 147.377 144.695 148 140.571 148C138.748 148 136.961 147.88 135.211 147.641C133.484 147.401 131.818 147.054 130.211 146.599C128.933 146.212 127.703 145.755 126.519 145.228C126.001 144.998 125.679 144.478 125.679 143.912V136.756C125.679 135.69 126.776 134.974 127.763 135.377C129.607 136.133 131.503 136.831 133.448 137.473C136.134 138.359 138.796 138.802 141.434 138.802C143.256 138.802 144.719 138.563 145.822 138.084C146.949 137.605 147.765 136.946 148.268 136.108C148.772 135.269 149.024 134.311 149.024 133.234C149.024 131.916 148.58 130.79 147.693 129.856C146.806 128.922 145.583 128.048 144.024 127.234C142.489 126.419 140.75 125.545 138.808 124.611C137.585 124.036 136.254 123.341 134.815 122.527C133.376 121.689 132.009 120.671 130.714 119.473C129.42 118.275 128.352 116.826 127.513 115.126C126.698 113.401 126.29 111.341 126.29 108.946C126.29 105.808 127.009 103.126 128.448 100.898C129.887 98.6707 131.938 96.9701 134.599 95.7964C137.285 94.5988 140.451 94 144.096 94C146.83 94 149.431 94.3234 151.901 94.9701C153.986 95.4905 156.145 96.2117 158.38 97.1337C159.122 97.4395 159.461 98.2923 159.154 99.0329L156.671 105.008C156.361 105.756 155.505 106.112 154.75 105.821C152.868 105.097 151.151 104.522 149.599 104.096C147.681 103.545 145.726 103.269 143.736 103.269C142.345 103.269 141.158 103.497 140.175 103.952C139.192 104.383 138.448 105.006 137.945 105.82C137.441 106.611 137.189 107.533 137.189 108.587C137.189 109.832 137.549 110.886 138.268 111.749C139.012 112.587 140.115 113.401 141.578 114.192C143.065 114.982 144.911 115.904 147.117 116.958C149.803 118.228 152.093 119.557 153.988 120.946C155.906 122.311 157.381 123.928 158.412 125.796C159.443 127.641 159.959 129.94 159.959 132.695Z" fill="#F2F2F2"/>
</g>
<defs>
<clipPath id="clip0_118_121">
<rect width="88" height="54" fill="white" transform="translate(72 94)"/>
</clipPath>
</defs>
</svg>
